G04*
G04 #@! TF.GenerationSoftware,Altium Limited,Altium Designer,21.3.2 (30)*
G04*
G04 Layer_Physical_Order=2*
G04 Layer_Color=16711680*
%FSLAX25Y25*%
%MOIN*%
G70*
G04*
G04 #@! TF.SameCoordinates,FE050A9F-21F3-40BC-BC20-1EE1FB2A97B0*
G04*
G04*
G04 #@! TF.FilePolarity,Positive*
G04*
G01*
G75*
%ADD13R,0.02756X0.02756*%
%ADD14R,0.04724X0.03543*%
%ADD19C,0.01968*%
%ADD20R,0.07874X0.06299*%
%ADD21O,0.07874X0.06299*%
%ADD22C,0.02362*%
G36*
X53150Y49606D02*
X44094D01*
Y40945D01*
X53150D01*
Y38719D01*
X52650Y38473D01*
X52093Y38900D01*
X51083Y39318D01*
X50000Y39461D01*
X49713D01*
Y35276D01*
Y31090D01*
X50000D01*
X51083Y31233D01*
X52093Y31651D01*
X52650Y32078D01*
X53150Y31832D01*
Y1969D01*
X1969D01*
Y76772D01*
X53150D01*
Y49606D01*
D02*
G37*
%LPC*%
G36*
X48713Y39461D02*
X48425D01*
X47342Y39318D01*
X46332Y38900D01*
X45466Y38235D01*
X44800Y37368D01*
X44382Y36359D01*
X44306Y35776D01*
X48713D01*
Y39461D01*
D02*
G37*
G36*
Y34776D02*
X44306D01*
X44382Y34192D01*
X44800Y33183D01*
X45466Y32316D01*
X46332Y31651D01*
X47342Y31233D01*
X48425Y31090D01*
X48713D01*
Y34776D01*
D02*
G37*
G36*
X33965Y27744D02*
Y26091D01*
X35618D01*
X35314Y26826D01*
X34700Y27440D01*
X33965Y27744D01*
D02*
G37*
G36*
X32965D02*
X32229Y27440D01*
X31615Y26826D01*
X31311Y26091D01*
X32965D01*
Y27744D01*
D02*
G37*
G36*
X35618Y25091D02*
X33965D01*
Y23437D01*
X34700Y23742D01*
X35314Y24355D01*
X35618Y25091D01*
D02*
G37*
G36*
X32965D02*
X31311D01*
X31615Y24355D01*
X32229Y23742D01*
X32965Y23437D01*
Y25091D01*
D02*
G37*
%LPD*%
D13*
X68898Y33465D02*
D03*
Y27953D02*
D03*
D14*
Y61221D02*
D03*
Y52953D02*
D03*
D19*
Y33465D02*
Y52953D01*
X49213Y35276D02*
X57244D01*
X62177Y27559D02*
X68504D01*
X61024Y28712D02*
Y31496D01*
X68504Y27559D02*
X68898Y27953D01*
X61024Y28712D02*
X62177Y27559D01*
X57244Y35276D02*
X61024Y31496D01*
X62177Y61221D02*
X68898D01*
X61024Y49213D02*
Y60067D01*
X62177Y61221D01*
X57087Y45276D02*
X61024Y49213D01*
X49213Y45276D02*
X57087D01*
D20*
X49213D02*
D03*
D21*
Y35276D02*
D03*
D22*
X33465Y25591D02*
D03*
M02*
