G04*
G04 #@! TF.GenerationSoftware,Altium Limited,Altium Designer,21.3.2 (30)*
G04*
G04 Layer_Color=65535*
%FSLAX25Y25*%
%MOIN*%
G70*
G04*
G04 #@! TF.SameCoordinates,FE050A9F-21F3-40BC-BC20-1EE1FB2A97B0*
G04*
G04*
G04 #@! TF.FilePolarity,Positive*
G04*
G01*
G75*
%ADD10C,0.00787*%
%ADD11C,0.01000*%
%ADD12R,0.06299X0.02362*%
D10*
X18504Y20472D02*
X24803D01*
X18504D02*
Y34252D01*
X24803D01*
Y20472D02*
Y34252D01*
X17717Y49213D02*
X25591D01*
Y64961D01*
X17717D02*
X25591D01*
X17717Y49213D02*
Y64961D01*
X37713Y35276D02*
X43713D01*
Y45276D01*
X37713D02*
X43713D01*
X60713Y30276D02*
Y50276D01*
X37713Y30276D02*
X60713D01*
X37713D02*
Y50276D01*
X60713D01*
X8661Y6299D02*
Y11022D01*
X10236Y9447D01*
X11810Y11022D01*
Y6299D01*
X13384Y9447D02*
Y7086D01*
X14171Y6299D01*
X16533D01*
Y5511D01*
X15746Y4724D01*
X14959D01*
X16533Y6299D02*
Y9447D01*
X22830Y6299D02*
Y11022D01*
X25192D01*
X25979Y10234D01*
Y8660D01*
X25192Y7873D01*
X22830D01*
X30702Y10234D02*
X29914Y11022D01*
X28340D01*
X27553Y10234D01*
Y7086D01*
X28340Y6299D01*
X29914D01*
X30702Y7086D01*
X32276Y11022D02*
Y6299D01*
X34637D01*
X35424Y7086D01*
Y7873D01*
X34637Y8660D01*
X32276D01*
X34637D01*
X35424Y9447D01*
Y10234D01*
X34637Y11022D01*
X32276D01*
X41722D02*
Y6299D01*
X44083D01*
X44870Y7086D01*
Y10234D01*
X44083Y11022D01*
X41722D01*
X48806Y6299D02*
X47232D01*
X46444Y7086D01*
Y8660D01*
X47232Y9447D01*
X48806D01*
X49593Y8660D01*
Y7873D01*
X46444D01*
X51167Y6299D02*
X53529D01*
X54316Y7086D01*
X53529Y7873D01*
X51955D01*
X51167Y8660D01*
X51955Y9447D01*
X54316D01*
X55890Y6299D02*
X57464D01*
X56677D01*
Y9447D01*
X55890D01*
X61400Y4724D02*
X62187D01*
X62975Y5511D01*
Y9447D01*
X60613D01*
X59826Y8660D01*
Y7086D01*
X60613Y6299D01*
X62975D01*
X64549D02*
Y9447D01*
X66910D01*
X67697Y8660D01*
Y6299D01*
X32283Y34252D02*
X35432D01*
X32283Y45669D02*
X35432D01*
X33858Y47243D02*
Y44094D01*
D11*
X62713Y42276D02*
X64712D01*
X63712D01*
Y48274D01*
X62713Y47274D01*
X5844Y54088D02*
Y60086D01*
X8843D01*
X9843Y59086D01*
Y57087D01*
X8843Y56087D01*
X5844D01*
X7843D02*
X9843Y54088D01*
X11842D02*
X13841D01*
X12842D01*
Y60086D01*
X11842Y59086D01*
X42318Y59678D02*
X40319D01*
X41319D01*
Y54679D01*
X40319Y53680D01*
X39319D01*
X38320Y54679D01*
X44318Y53680D02*
X46317D01*
X45317D01*
Y59678D01*
X44318Y58678D01*
X7812Y32527D02*
Y26528D01*
X10811D01*
X11811Y27528D01*
Y31527D01*
X10811Y32527D01*
X7812D01*
X13810Y26528D02*
X15810D01*
X14810D01*
Y32527D01*
X13810Y31527D01*
D12*
X21654Y21654D02*
D03*
M02*
