G04*
G04 #@! TF.GenerationSoftware,Altium Limited,Altium Designer,21.3.2 (30)*
G04*
G04 Layer_Color=32896*
%FSLAX25Y25*%
%MOIN*%
G70*
G04*
G04 #@! TF.SameCoordinates,FE050A9F-21F3-40BC-BC20-1EE1FB2A97B0*
G04*
G04*
G04 #@! TF.FilePolarity,Positive*
G04*
G01*
G75*
%ADD10C,0.00787*%
%ADD11C,0.01000*%
%ADD12R,0.06299X0.02362*%
D10*
X65748Y22835D02*
X72047D01*
Y36614D01*
X65748D02*
X72047D01*
X65748Y22835D02*
Y36614D01*
X64961Y49213D02*
X72835D01*
X64961D02*
Y64961D01*
X72835D01*
Y49213D02*
Y64961D01*
D11*
X73896Y67867D02*
Y73865D01*
X70897D01*
X69897Y72865D01*
Y70866D01*
X70897Y69867D01*
X73896D01*
X71897D02*
X69897Y67867D01*
X63899D02*
X67898D01*
X63899Y71866D01*
Y72865D01*
X64899Y73865D01*
X66898D01*
X67898Y72865D01*
X73896Y20716D02*
Y14717D01*
X70897D01*
X69897Y15717D01*
Y19716D01*
X70897Y20716D01*
X73896D01*
X63899Y14717D02*
X67898D01*
X63899Y18716D01*
Y19716D01*
X64899Y20716D01*
X66898D01*
X67898Y19716D01*
D12*
X68898Y24016D02*
D03*
M02*
